<svg width="28" height="28" viewBox="0 0 28 28" fill="none" xmlns="http://www.w3.org/2000/svg">
<path d="M14.4608 12.0692C17.0158 9.47919 16.835 5.09253 14.0816 2.72419C11.5733 0.56586 7.67079 0.711693 5.32579 3.12086C3.06246 5.44253 2.95163 9.12919 4.87079 11.5442C7.15746 14.4259 11.7716 14.7875 14.4608 12.0692Z" fill="#FF720D"></path>
<path d="M4.08329 26.8334H15.75C17.78 26.8334 18.6958 25.025 18.7191 23.2342C18.7541 20.615 17.7216 17.9259 15.7091 16.1992C12.0866 13.0025 6.55663 13.3409 3.35996 16.9634C1.60996 18.9467 1.16663 21.3559 1.16663 23.9167C1.16663 25.5267 2.47329 26.8334 4.08329 26.8334Z" fill="#FF720D"></path>
<path d="M25.0833 7.58333C25.0891 2.94 19.5999 0.145831 15.8374 2.85833C18.0541 5.6175 18.0541 9.54916 15.8374 12.3083C15.7849 12.3725 16.9983 12.9092 17.0916 12.9442C20.7024 14.4433 25.0774 11.5208 25.0833 7.58333Z" fill="#FF720D"></path>
<path d="M19.25 13.4167C17.8908 13.4167 16.555 13.79 15.3825 14.4842C15.5983 14.3559 16.9808 15.7909 17.15 15.9775C18.8416 17.78 19.8333 20.2592 19.8333 22.75V23.9167C19.8333 24.7508 19.5766 25.5675 19.0983 26.25H23.9166C25.5266 26.25 26.8333 24.9433 26.8333 23.3333C26.8333 21.2625 26.9383 19.2617 25.9175 17.3833C25.0891 15.8609 23.7358 14.6475 22.1375 13.9825C21.2216 13.6092 20.2358 13.4167 19.25 13.4167Z" fill="#FF720D"></path>
</svg>